<svg xmlns="http://www.w3.org/2000/svg" width="1024" height="1024" viewBox="0 0 1024 1024" version="1.1">
	<path d="M 0 512.001 L 0 1024.002 512.250 1023.751 L 1024.500 1023.500 1024.751 511.750 L 1025.002 0 512.501 0 L 0 0 0 512.001 M 0.496 512.500 C 0.496 794.100, 0.610 909.151, 0.750 768.168 C 0.890 627.186, 0.890 396.786, 0.750 256.168 C 0.610 115.551, 0.496 230.900, 0.496 512.500 M 498.579 175.046 C 488.056 178.767, 479.419 186.234, 474.675 195.714 C 473.358 198.346, 457.086 246.175, 438.515 302 C 419.944 357.825, 404.469 403.796, 404.125 404.158 C 403.781 404.520, 354.225 405.115, 294 405.481 C 176.736 406.192, 181.030 405.996, 170.846 411.108 C 161.054 416.024, 152.106 428.985, 149.948 441.380 C 147.859 453.373, 152.208 467.503, 160.757 476.500 C 162.848 478.700, 203.595 507.950, 251.306 541.500 C 331.662 598.004, 338.020 602.684, 337.588 605 C 337.332 606.375, 322.600 654.075, 304.851 711 L 272.581 814.500 272.540 825.022 C 272.502 835.022, 272.670 835.891, 275.929 842.522 C 286.480 863.995, 311.574 872.731, 332.307 862.150 C 335.163 860.692, 376.519 831.487, 424.209 797.250 C 471.900 763.013, 511.405 735, 512 735 C 512.595 735, 552.100 763.012, 599.791 797.250 C 647.481 831.487, 688.837 860.692, 691.693 862.150 C 698.994 865.876, 709.424 867.491, 717.263 866.110 C 733.074 863.326, 745.870 851.576, 750.522 835.572 C 754.052 823.431, 754.313 824.464, 718.609 709.547 C 700.674 651.822, 686.010 604.122, 686.022 603.547 C 686.035 602.971, 724.977 575.078, 772.561 541.562 C 822.435 506.434, 860.928 478.646, 863.446 475.954 C 869.048 469.966, 871.791 464.518, 873.618 455.755 C 877.819 435.608, 865.194 414.126, 845.627 408.126 C 839.855 406.355, 833.104 406.204, 729 405.520 C 668.225 405.121, 618.457 404.728, 618.405 404.647 C 618.352 404.566, 603.336 358.600, 585.034 302.500 C 566.733 246.400, 550.404 197.918, 548.747 194.763 C 544.839 187.319, 537.632 180.659, 529.223 176.722 C 520.241 172.516, 507.679 171.829, 498.579 175.046" stroke="none" fill="black" fill-rule="evenodd"/>
</svg>